<svg width="600" height="188" viewBox="0 0 600 188" fill="none" xmlns="http://www.w3.org/2000/svg">
<g clip-path="url(#clip0_5_155)">
<path d="M25.2135 37.88L25.2023 37.8795L0.202296 36.7545L-4.5 36.5429V41.2499V187.5V192H0H600H604.5V187.5V41.2499V36.9906L600.247 36.7567L575.247 35.3817L575.236 35.3811C573.797 35.3056 572.275 35.2253 570.674 35.1408C544.482 33.7585 497.284 31.2677 450.073 30.5005C399.965 29.6863 349.865 30.6886 299.775 33.1931C283.682 33.9977 267.633 34.9544 251.609 35.9095C217.663 37.9329 183.83 39.9496 149.927 40.5005C100.082 41.3105 50.2055 39.0671 25.2135 37.88Z" fill="#444444" stroke="#EBC023" stroke-width="9"/>
</g>
<defs>
<clipPath id="clip0_5_155">
<rect width="600" height="187.5" fill="white"/>
</clipPath>
</defs>
</svg>
